<svg 
  xmlns="http://www.w3.org/2000/svg" 
  xmlns:xlink="http://www.w3.org/1999/xlink" width="640" height="640" viewBox="0 0 640 640">
  <defs>
    <linearGradient id="linear-gradient" x1="320" y1="558.32" x2="320" y2="143.24" gradientTransform="matrix(-1, 0, 0, 1, 640, 0)" gradientUnits="userSpaceOnUse">
      <stop offset="0" stop-color="#1a1a1a"/>
      <stop offset="0.25" stop-color="#0d0d0d"/>
      <stop offset="0.58" stop-color="#030303"/>
      <stop offset="1"/>
    </linearGradient>
  </defs>
  <title>prototype</title>
  <g id="head">
    <path d="M320,558.32c217.37,0,276.81-110.83,259.18-196.91-4.23-20.65-33.5-104.94-35-107.05C511,207,448.9,143.24,320,143.24S129,207,95.8,254.36c-1.48,2.11-30.75,86.4-35,107.05C43.19,447.5,102.63,558.32,320,558.32Z" fill="url(#linear-gradient)"/>
  </g>
  <g id="mouth">
    <path d="M370,428a25,25,0,0,1-50,0,25,25,0,0,1-50,0" fill="none" stroke="#929497" stroke-linecap="round" stroke-linejoin="round" stroke-width="5"/>
  </g>
  <g id="w">
    <path d="M84.42,391.43c-21.28-8.51-59.57-19.15-72.34-17" fill="none" stroke="#929497" stroke-linecap="round" stroke-linejoin="round" stroke-width="5"/>
    <path d="M83.6,407c-21.66-3.42-59.06-5.09-69.6-.21" fill="none" stroke="#929497" stroke-linecap="round" stroke-linejoin="round" stroke-width="5"/>
    <path d="M544.58,380.43c21.28-8.51,59.57-19.15,72.34-17" fill="none" stroke="#929497" stroke-linecap="round" stroke-linejoin="round" stroke-width="5"/>
    <path d="M545.4,396c22.9-3.42,62.45-5.09,73.6-.21" fill="none" stroke="#929497" stroke-linecap="round" stroke-linejoin="round" stroke-width="5"/>
  </g>
  <g id="ears_0">
    <path d="M235.6,154.84c-18.5-33.14-49.51-76.76-62-69.14-14.37,8.74-51.13,97.88-78.21,169.67C100.42,254.49,226.07,184.62,235.6,154.84Z" fill="#231f20"/>
    <path d="M216.8,160.75c-8.69-22.73-32.5-56.23-39.57-53.41C170.36,110.09,137,186.07,125,223,143.74,204.49,189.9,173.6,216.8,160.75Z" fill="#929497"/>
    <path d="M404.4,154.84c18.5-33.14,49.51-76.76,62-69.14,14.37,8.74,51.13,97.88,78.21,169.67C539.58,254.49,413.93,184.62,404.4,154.84Z" fill="#231f20"/>
    <path d="M423.2,160.75c8.69-22.73,32.5-56.23,39.57-53.41C469.64,110.09,503,186.07,515,223,496.26,204.49,450.1,173.6,423.2,160.75Z" fill="#929497"/>
  </g>
  <g id="eyes_2">
    <polyline points="153.33 373.95 248.62 373.95 165.24 338.22" fill="none" stroke="#929497" stroke-linecap="round" stroke-linejoin="round" stroke-width="12"/>
    <polyline points="474.76 338.22 391.38 373.95 486.67 373.95" fill="none" stroke="#929497" stroke-linecap="round" stroke-linejoin="round" stroke-width="12"/>
  </g>
  <g id="hat">
    <path d="M363.92,222.39c-40,0-76.37-9.72-102.9-16.82-15.12-4-28.17-7.54-35.91-7.54-.53,0-1,0-1.53.05a107.61,107.61,0,0,0-47.36,15.41A7.07,7.07,0,0,1,166,204.35c4.55-8.61,5.73-13.73,6-26.06.28-12-6.56-32.24-6.63-32.45a7.06,7.06,0,0,1,10.78-8c.3.22,30.39,21.53,47.86,25.54a9.3,9.3,0,0,0,2,.2c9.46,0,27.65-8.85,45.23-17.41l1.54-.75c24.62-12,51.69-23.08,82.81-23.08,35,0,68.39,13.78,102.17,42.13a7.06,7.06,0,0,1-1.71,11.88l-28.37,12.43,13.82,7.19a7.07,7.07,0,0,1-.76,12.87A216.24,216.24,0,0,1,363.92,222.39Z"/>
    <path d="M363.91,216.33c-39.23,0-75.12-9.61-101.33-16.62-16.17-4.33-28.94-7.74-37.47-7.74-.69,0-1.36,0-2,.07a113,113,0,0,0-50.33,16.44l-3.34,2.28,1.89-3.57c5.37-10.17,6.43-16.37,6.71-28.75.31-13.14-6.88-34.33-7-34.55l-1-2.94,2.53,1.8c.31.22,31.38,22.24,50,26.51a15.31,15.31,0,0,0,3.4.35c10.86,0,28.85-8.76,47.9-18l1.53-.75c24-11.67,50.26-22.47,80.15-22.47,33.49,0,65.63,13.32,98.27,40.71l1.23,1-41.45,18.16,27,14.07-2.09.79a210.2,210.2,0,0,1-74.73,13.2Z"/>
    <path d="M411.38,188.19l41.89-18.35c-74.64-62.65-134.09-39.17-177.34-18.11-22.22,10.81-42.72,21-53.49,18.5-19.05-4.37-50.38-26.67-50.38-26.67s7.32,21.42,7,34.89c-.3,12.83-1.53,19.16-6.83,29.19A113.11,113.11,0,0,1,223.05,191c29.75-2.2,120.53,47,215.24,11.16Z" fill="#fff"/>
    <path d="M411.38,188.19l41.89-18.35c-74.64-62.65-134.09-39.17-177.34-18.11-22.22,10.81-42.72,21-53.49,18.5,0,0,13.32,5,26.34,4,71-5.42,81.4,13.34,119.85,18.37A92.59,92.59,0,0,0,411.38,188.19Z" fill="#507282"/>
    <path d="M362.94,156.67a19.28,19.28,0,1,0,25.83-8.78A19.27,19.27,0,0,0,362.94,156.67Z" fill="#fff"/>
    <path d="M368.21,159.25a13.41,13.41,0,1,0,18-6.11A13.4,13.4,0,0,0,368.21,159.25Z" fill="#231f20"/>
    <path d="M208.7,174s-4-1.88-10.75-4.74c-6.31-2.67-13.9-1.89-13.9-1.89s6.66,4.12,10.92,5.49C198.06,173.85,208.7,174,208.7,174Z" fill="#204b60"/>
    <path d="M207.42,184.58s-4.35-.69-11.64-1.54c-6.81-.8-13.87,2.09-13.87,2.09s7.54,2.08,12,2.21C197.17,187.45,207.42,184.58,207.42,184.58Z" fill="#204b60"/>
    <path d="M360.06,211.89s-11.57-8.12-16.47-22C341,182.61,341,160.69,341,160.69s-8,16.63-6.16,27.71c1.51,9,5.1,13.31,7.6,15.89C347.31,209.37,360.06,211.89,360.06,211.89Z" fill="#204b60"/>
  </g>
</svg>